<svg width="51" height="21" viewBox="0 0 51 21" fill="none" xmlns="http://www.w3.org/2000/svg">
<path d="M48.0621 7.51682H9.0871L12.3371 4.29182C12.8079 3.82106 13.0723 3.18258 13.0723 2.51682C13.0723 1.85107 12.8079 1.21258 12.3371 0.741821C11.8663 0.271062 11.2279 0.0065918 10.5621 0.0065918C9.89635 0.00659179 9.25786 0.271062 8.7871 0.741821L1.2871 8.24182C1.05278 8.47423 0.866796 8.75073 0.739875 9.05538C0.612953 9.36003 0.547607 9.68679 0.547607 10.0168C0.547607 10.3469 0.612953 10.6736 0.739875 10.9783C0.866796 11.2829 1.05278 11.5594 1.2871 11.7918L8.7871 19.2918C9.01951 19.5261 9.29601 19.7121 9.60066 19.839C9.90531 19.966 10.2321 20.0313 10.5621 20.0313C10.8921 20.0313 11.2189 19.966 11.5235 19.839C11.8282 19.7121 12.1047 19.5261 12.3371 19.2918C12.5714 19.0594 12.7574 18.7829 12.8843 18.4783C13.0113 18.1736 13.0766 17.8469 13.0766 17.5168C13.0766 17.1868 13.0113 16.86 12.8843 16.5554C12.7574 16.2507 12.5714 15.9742 12.3371 15.7418L9.0871 12.5168H48.0621C48.7251 12.5168 49.361 12.2534 49.8299 11.7846C50.2987 11.3157 50.5621 10.6799 50.5621 10.0168C50.5621 9.35378 50.2987 8.7179 49.8299 8.24905C49.361 7.78021 48.7251 7.51682 48.0621 7.51682Z" fill="black"/>
</svg>
