<?xml version="1.0" standalone="no"?>
<!DOCTYPE svg PUBLIC "-//W3C//DTD SVG 20010904//EN"
 "http://www.w3.org/TR/2001/REC-SVG-20010904/DTD/svg10.dtd">
<svg version="1.0" xmlns="http://www.w3.org/2000/svg"
 width="239.000000pt" height="239.000000pt" viewBox="0 0 239.000000 239.000000"
 preserveAspectRatio="xMidYMid meet">
<metadata>
Created by potrace 1.14, written by Peter Selinger 2001-2017
</metadata>
<g transform="translate(0.000000,239.000000) scale(0.100000,-0.100000)"
fill="#000000" stroke="none">
<path d="M1273 2383 c-23 -9 -14 -48 15 -70 82 -60 80 -213 -2 -267 -34 -22
-33 -46 5 -82 43 -41 59 -76 59 -129 0 -55 -10 -77 -57 -126 -59 -62 -25 -106
41 -55 48 36 86 117 86 180 0 51 -27 125 -57 158 -14 15 -13 20 10 50 74 99
54 255 -42 326 -31 23 -37 24 -58 15z"/>
<path d="M995 2020 c-5 -16 3 -30 34 -60 34 -33 61 -88 61 -125 0 -38 -27 -92
-63 -126 -33 -33 -39 -44 -30 -57 17 -29 44 -25 80 10 49 46 73 101 73 171 0
71 -20 120 -68 170 -40 41 -77 49 -87 17z"/>
<path d="M1510 2025 c-14 -16 -6 -32 28 -59 30 -24 62 -91 62 -131 0 -42 -34
-110 -63 -130 -31 -20 -41 -43 -26 -61 19 -23 43 -16 81 24 53 55 71 98 72
167 0 48 -6 71 -29 113 -42 78 -96 111 -125 77z"/>
<path d="M574 1463 c-12 -2 -31 -15 -44 -28 -22 -23 -22 -25 -18 -324 l3 -301
-45 0 c-64 0 -134 -36 -138 -71 -4 -37 18 -42 73 -18 25 11 54 19 65 17 16 -3
9 -17 -47 -99 -50 -74 -64 -102 -58 -118 5 -17 13 -21 33 -19 22 2 40 22 90
98 l64 95 -5 -56 c-6 -61 -18 -91 -66 -156 l-31 -43 -89 0 -88 0 -6 30 c-8 35
0 84 19 122 27 53 11 98 -30 82 -41 -16 -73 -171 -53 -252 l9 -32 -51 0 c-39
0 -53 -4 -61 -19 -13 -24 -13 -91 0 -111 6 -10 92 -31 272 -65 l263 -50 5 -65
5 -65 529 -3 c382 -1 533 1 542 9 9 7 14 32 14 68 l0 56 258 49 c141 27 263
53 270 58 12 11 17 94 6 122 -5 14 -32 16 -195 16 -176 0 -189 -1 -199 -19 -7
-15 -6 -23 6 -35 13 -13 43 -16 170 -16 85 0 154 -4 154 -8 0 -4 -100 -28
-222 -53 l-223 -44 -548 -3 -548 -3 -242 46 c-133 26 -246 51 -251 56 -6 5
296 9 795 9 854 0 846 0 837 46 -3 17 -15 19 -128 24 -123 5 -125 5 -100 23
50 35 146 137 175 187 l30 51 40 -8 c22 -4 76 -8 120 -7 101 1 174 32 245 104
197 196 116 528 -149 610 -35 11 -90 20 -122 20 -53 0 -59 2 -59 21 0 55 -46
79 -157 79 -81 0 -115 -13 -111 -43 3 -21 9 -22 103 -27 l100 -5 3 -32 3 -33
-605 0 -606 0 0 35 0 35 463 2 462 3 3 22 c3 17 -3 26 -23 33 -25 10 -864 12
-911 3z m1447 -180 c72 -23 158 -107 182 -177 40 -117 14 -231 -72 -317 -70
-69 -139 -94 -236 -87 -82 7 -85 9 -72 55 l10 38 82 0 c73 0 86 3 121 27 21
15 50 44 64 65 21 31 25 48 25 113 0 65 -4 82 -25 113 -43 63 -92 91 -171 95
l-69 4 0 44 0 44 54 0 c29 0 78 -8 107 -17z m-237 -213 c0 -206 -8 -258 -59
-365 -60 -127 -151 -219 -281 -285 l-59 -30 -205 0 c-113 0 -211 4 -219 9 -12
8 -13 14 -3 36 17 36 15 110 -3 146 -37 70 -154 118 -259 105 l-51 -7 -22 58
c-37 94 -42 138 -43 336 l0 187 603 -2 602 -3 -1 -185z m214 50 c21 -13 41
-38 54 -66 18 -41 19 -51 8 -91 -22 -78 -100 -122 -177 -101 l-33 9 0 122 c0
82 4 127 12 135 19 19 99 14 136 -8z m-1156 -531 c21 -11 38 -23 38 -27 0 -4
-51 -18 -112 -30 -120 -23 -146 -38 -127 -73 8 -17 6 -19 -21 -19 -18 0 -30 3
-28 8 26 51 48 107 48 122 0 51 117 62 202 19z m33 -129 c-15 -17 -30 -20 -94
-19 l-76 1 80 18 c109 24 112 24 90 0z m785 -350 c0 -22 -5 -31 -22 -35 -13
-3 -228 -4 -478 -3 -429 3 -455 4 -458 21 -10 48 -25 47 483 47 l475 0 0 -30z"/>
</g>
</svg>
